<?xml version="1.0"?>
<!DOCTYPE svg PUBLIC "-//W3C//DTD SVG 1.1//EN" "http://www.w3.org/Graphics/SVG/1.1/DTD/svg11.dtd">
<svg width="163.2mm" height="263.2mm" viewBox="0 0 163.2 263.2" xmlns="http://www.w3.org/2000/svg" version="1.1">
<g id="Sketch" transform="translate(1.600000,261.600000) scale(1,-1)">
<path id="Sketch_w0000"  d="M 0.0 0.0 L 160.0 0.0 L 160.0 17.5 L 156.35 17.5 L 156.35 20.5 L 160.0 20.5 L 160.0 23.5 L 156.35 23.5 L 156.35 26.5 L 160.0 26.5 L 160.0 29.5 L 156.35 29.5 L 156.35 32.5 L 160.0 32.5 L 160.0 35.5 L 156.35 35.5 L 156.35 38.5 L 160.0 38.5 L 160.0 41.5 L 156.35 41.5 L 156.35 44.5 L 160.0 44.5 L 160.0 47.5 L 156.35 47.5 L 156.35 50.5 L 160.0 50.5 L 160.0 53.5 L 156.35 53.5 L 156.35 56.5 L 160.0 56.5 L 160.0 59.5 L 156.35 59.5 L 156.35 62.5 L 160.0 62.5 L 160.0 65.5 L 156.35 65.5 L 156.35 68.5 L 160.0 68.5 L 160.0 71.5 L 156.35 71.5 L 156.35 74.5 L 160.0 74.5 L 160.0 77.5 L 156.35 77.5 L 156.35 80.5 L 160.0 80.5 L 160.0 83.5 L 156.35 83.5 L 156.35 86.5 L 160.0 86.5 L 160.0 89.5 L 156.35 89.5 L 156.35 92.5 L 160.0 92.5 L 160.0 95.5 L 156.35 95.5 L 156.35 98.5 L 160.0 98.5 L 160.0 101.5 L 156.35 101.5 L 156.35 104.5 L 160.0 104.5 L 160.0 107.5 L 156.35 107.5 L 156.35 110.5 L 160.0 110.5 L 160.0 113.5 L 156.35 113.5 L 156.35 116.5 L 160.0 116.5 L 160.0 119.5 L 156.35 119.5 L 156.35 122.5 L 160.0 122.5 L 160.0 125.5 L 156.35 125.5 L 156.35 128.5 L 160.0 128.5 L 160.0 131.5 L 156.35 131.5 L 156.35 134.5 L 160.0 134.5 L 160.0 137.5 L 156.35 137.5 L 156.35 140.5 L 160.0 140.5 L 160.0 143.5 L 156.35 143.5 L 156.35 146.5 L 160.0 146.5 L 160.0 149.5 L 156.35 149.5 L 156.35 152.5 L 160.0 152.5 L 160.0 155.5 L 156.35 155.5 L 156.35 158.5 L 160.0 158.5 L 160.0 161.5 L 156.35 161.5 L 156.35 164.5 L 160.0 164.5 L 160.0 167.5 L 156.35 167.5 L 156.35 170.5 L 160.0 170.5 L 160.0 173.5 L 156.35 173.5 L 156.35 176.5 L 160.0 176.5 L 160.0 179.5 L 156.35 179.5 L 156.35 182.5 L 160.0 182.5 L 160.0 185.5 L 156.35 185.5 L 156.35 188.5 L 160.0 188.5 L 160.0 191.5 L 156.35 191.5 L 156.35 194.5 L 160.0 194.5 L 160.0 197.5 L 156.35 197.5 L 156.35 200.5 L 160.0 200.5 L 160.0 203.5 L 156.35 203.5 L 156.35 206.5 L 160.0 206.5 L 160.0 209.5 L 156.35 209.5 L 156.35 212.5 L 160.0 212.5 L 160.0 215.5 L 156.35 215.5 L 156.35 218.5 L 160.0 218.5 L 160.0 221.5 L 156.35 221.5 L 156.35 224.5 L 160.0 224.5 L 160.0 227.5 L 156.35 227.5 L 156.35 230.5 L 160.0 230.5 L 160.0 233.5 L 156.35 233.5 L 156.35 236.5 L 160.0 236.5 L 160.0 239.5 L 156.35 239.5 L 156.35 242.5 L 160.0 242.5 L 160.0 260.0 L 0.0 260.0 L 0.0 242.5 L 3.65 242.5 L 3.65 239.5 L 0.0 239.5 L 0.0 236.5 L 3.65 236.5 L 3.65 233.5 L 0.0 233.5 L 0.0 230.5 L 3.65 230.5 L 3.65 227.5 L 0.0 227.5 L 0.0 224.5 L 3.65 224.5 L 3.65 221.5 L 0.0 221.5 L 0.0 218.5 L 3.65 218.5 L 3.65 215.5 L 0.0 215.5 L 0.0 212.5 L 3.65 212.5 L 3.65 209.5 L 0.0 209.5 L 0.0 206.5 L 3.65 206.5 L 3.65 203.5 L 0.0 203.5 L 0.0 200.5 L 3.65 200.5 L 3.65 197.5 L 0.0 197.5 L 0.0 194.5 L 3.65 194.5 L 3.65 191.5 L 0.0 191.5 L 0.0 188.5 L 3.65 188.5 L 3.65 185.5 L 0.0 185.5 L 0.0 182.5 L 3.65 182.5 L 3.65 179.5 L 0.0 179.5 L 0.0 176.5 L 3.65 176.5 L 3.65 173.5 L 0.0 173.5 L 0.0 170.5 L 3.65 170.5 L 3.65 167.5 L 0.0 167.5 L 0.0 164.5 L 3.65 164.5 L 3.65 161.5 L 0.0 161.5 L 0.0 158.5 L 3.65 158.5 L 3.65 155.5 L 0.0 155.5 L 0.0 152.5 L 3.65 152.5 L 3.65 149.5 L 0.0 149.5 L 0.0 146.5 L 3.65 146.5 L 3.65 143.5 L 0.0 143.5 L 0.0 140.5 L 3.65 140.5 L 3.65 137.5 L 0.0 137.5 L 0.0 134.5 L 3.65 134.5 L 3.65 131.5 L 0.0 131.5 L 0.0 128.5 L 3.65 128.5 L 3.65 125.5 L 0.0 125.5 L 0.0 122.5 L 3.65 122.5 L 3.65 119.5 L 0.0 119.5 L 0.0 116.5 L 3.65 116.5 L 3.65 113.5 L 0.0 113.5 L 0.0 110.5 L 3.65 110.5 L 3.65 107.5 L 0.0 107.5 L 0.0 104.5 L 3.65 104.5 L 3.65 101.5 L 0.0 101.5 L 0.0 98.5 L 3.65 98.5 L 3.65 95.5 L 0.0 95.5 L 0.0 92.5 L 3.65 92.5 L 3.65 89.5 L 0.0 89.5 L 0.0 86.5 L 3.65 86.5 L 3.65 83.5 L 0.0 83.5 L 0.0 80.5 L 3.65 80.5 L 3.65 77.5 L 0.0 77.5 L 0.0 74.5 L 3.65 74.5 L 3.65 71.5 L 0.0 71.5 L 0.0 68.5 L 3.65 68.5 L 3.65 65.5 L 0.0 65.5 L 0.0 62.5 L 3.65 62.5 L 3.65 59.5 L 0.0 59.5 L 0.0 56.5 L 3.65 56.5 L 3.65 53.5 L 0.0 53.5 L 0.0 50.5 L 3.65 50.5 L 3.65 47.5 L 0.0 47.5 L 0.0 44.5 L 3.65 44.5 L 3.65 41.5 L 0.0 41.5 L 0.0 38.5 L 3.65 38.5 L 3.65 35.5 L 0.0 35.5 L 0.0 32.5 L 3.65 32.5 L 3.65 29.5 L 0.0 29.5 L 0.0 26.5 L 3.65 26.5 L 3.65 23.5 L 0.0 23.5 L 0.0 20.5 L 3.65 20.5 L 3.65 17.5 L 0.0 17.5 L 0.0 0.0 " stroke="#000000" stroke-width="0.35 px" style="stroke-width:0.35;stroke-miterlimit:4;stroke-dasharray:none;fill:none;fill-rule: evenodd "/>
<title>Sketch</title>
</g>
</svg>