<?xml version="1.0"?>
<!DOCTYPE svg PUBLIC "-//W3C//DTD SVG 1.1//EN" "http://www.w3.org/Graphics/SVG/1.1/DTD/svg11.dtd">
<svg width="163.2mm" height="278.2mm" viewBox="0 0 163.2 278.2" xmlns="http://www.w3.org/2000/svg" version="1.1">
<g id="Sketch" transform="translate(81.600000,261.600000) scale(1,-1)">
<path id="Sketch_w0000"  d="M -32.9898822048 116.717037667 A 67 67 0 0 1 -32.8364 7.10543e-015L 32.8364201131 0.0 A 67 67 0 0 1 32.9899 116.717A 31.5 31.5 0 0 0 17 144.134L 17.0 149.0 L 16.0 149.0 L 16.0 211.0 L -16.0 211.0 L -16.0 149.0 L -17.0 149.0 L -17.0 144.133932425 A 31.5 31.5 0 0 0 -32.9899 116.717" stroke="#000000" stroke-width="0.35 px" style="stroke-width:0.35;stroke-miterlimit:4;stroke-dasharray:none;fill:none;fill-rule: evenodd "/>
<path id="Sketch_w0001"  d="M -80.0 -15.0 L 80.0 -15.0 L 80.0 10.0 L 76.35 10.0 L 76.35 13.0 L 80.0 13.0 L 80.0 16.0 L 76.35 16.0 L 76.35 19.0 L 80.0 19.0 L 80.0 22.0 L 76.35 22.0 L 76.35 25.0 L 80.0 25.0 L 80.0 28.0 L 76.35 28.0 L 76.35 31.0 L 80.0 31.0 L 80.0 34.0 L 76.35 34.0 L 76.35 37.0 L 80.0 37.0 L 80.0 40.0 L 76.35 40.0 L 76.35 43.0 L 80.0 43.0 L 80.0 46.0 L 76.35 46.0 L 76.35 49.0 L 80.0 49.0 L 80.0 52.0 L 76.35 52.0 L 76.35 55.0 L 80.0 55.0 L 80.0 58.0 L 76.35 58.0 L 76.35 61.0 L 80.0 61.0 L 80.0 64.0 L 76.35 64.0 L 76.35 67.0 L 80.0 67.0 L 80.0 70.0 L 76.35 70.0 L 76.35 73.0 L 80.0 73.0 L 80.0 76.0 L 76.35 76.0 L 76.35 79.0 L 80.0 79.0 L 80.0 82.0 L 76.35 82.0 L 76.35 85.0 L 80.0 85.0 L 80.0 88.0 L 76.35 88.0 L 76.35 91.0 L 80.0 91.0 L 80.0 94.0 L 76.35 94.0 L 76.35 97.0 L 80.0 97.0 L 80.0 100.0 L 76.35 100.0 L 76.35 103.0 L 80.0 103.0 L 80.0 106.0 L 76.35 106.0 L 76.35 109.0 L 80.0 109.0 L 80.0 112.0 L 76.35 112.0 L 76.35 115.0 L 80.0 115.0 L 80.0 118.0 L 76.35 118.0 L 76.35 121.0 L 80.0 121.0 L 80.0 124.0 L 76.35 124.0 L 76.35 127.0 L 80.0 127.0 L 80.0 130.0 L 76.35 130.0 L 76.35 133.0 L 80.0 133.0 L 80.0 136.0 L 76.35 136.0 L 76.35 139.0 L 80.0 139.0 L 80.0 142.0 L 76.35 142.0 L 76.35 145.0 L 80.0 145.0 L 80.0 148.0 L 76.35 148.0 L 76.35 151.0 L 80.0 151.0 L 80.0 154.0 L 76.35 154.0 L 76.35 157.0 L 80.0 157.0 L 80.0 160.0 L 76.35 160.0 L 76.35 163.0 L 80.0 163.0 L 80.0 166.0 L 76.35 166.0 L 76.35 169.0 L 80.0 169.0 L 80.0 172.0 L 76.35 172.0 L 76.35 175.0 L 80.0 175.0 L 80.0 178.0 L 76.35 178.0 L 76.35 181.0 L 80.0 181.0 L 80.0 184.0 L 76.35 184.0 L 76.35 187.0 L 80.0 187.0 L 80.0 190.0 L 76.35 190.0 L 76.35 193.0 L 80.0 193.0 L 80.0 196.0 L 76.35 196.0 L 76.35 199.0 L 80.0 199.0 L 80.0 202.0 L 76.35 202.0 L 76.35 205.0 L 80.0 205.0 L 80.0 208.0 L 76.35 208.0 L 76.35 211.0 L 80.0 211.0 L 80.0 214.0 L 76.35 214.0 L 76.35 217.0 L 80.0 217.0 L 80.0 220.0 L 76.35 220.0 L 76.35 223.0 L 80.0 223.0 L 80.0 226.0 L 76.35 226.0 L 76.35 229.0 L 80.0 229.0 L 80.0 232.0 L 76.35 232.0 L 76.35 235.0 L 80.0 235.0 L 80.0 260.0 L -80.0 260.0 L -80.0 235.0 L -76.35 235.0 L -76.35 232.0 L -80.0 232.0 L -80.0 229.0 L -76.35 229.0 L -76.35 226.0 L -80.0 226.0 L -80.0 223.0 L -76.35 223.0 L -76.35 220.0 L -80.0 220.0 L -80.0 217.0 L -76.35 217.0 L -76.35 214.0 L -80.0 214.0 L -80.0 211.0 L -76.35 211.0 L -76.35 208.0 L -80.0 208.0 L -80.0 205.0 L -76.35 205.0 L -76.35 202.0 L -80.0 202.0 L -80.0 199.0 L -76.35 199.0 L -76.35 196.0 L -80.0 196.0 L -80.0 193.0 L -76.35 193.0 L -76.35 190.0 L -80.0 190.0 L -80.0 187.0 L -76.35 187.0 L -76.35 184.0 L -80.0 184.0 L -80.0 181.0 L -76.35 181.0 L -76.35 178.0 L -80.0 178.0 L -80.0 175.0 L -76.35 175.0 L -76.35 172.0 L -80.0 172.0 L -80.0 169.0 L -76.35 169.0 L -76.35 166.0 L -80.0 166.0 L -80.0 163.0 L -76.35 163.0 L -76.35 160.0 L -80.0 160.0 L -80.0 157.0 L -76.35 157.0 L -76.35 154.0 L -80.0 154.0 L -80.0 151.0 L -76.35 151.0 L -76.35 148.0 L -80.0 148.0 L -80.0 145.0 L -76.35 145.0 L -76.35 142.0 L -80.0 142.0 L -80.0 139.0 L -76.35 139.0 L -76.35 136.0 L -80.0 136.0 L -80.0 133.0 L -76.35 133.0 L -76.35 130.0 L -80.0 130.0 L -80.0 127.0 L -76.35 127.0 L -76.35 124.0 L -80.0 124.0 L -80.0 121.0 L -76.35 121.0 L -76.35 118.0 L -80.0 118.0 L -80.0 115.0 L -76.35 115.0 L -76.35 112.0 L -80.0 112.0 L -80.0 109.0 L -76.35 109.0 L -76.35 106.0 L -80.0 106.0 L -80.0 103.0 L -76.35 103.0 L -76.35 100.0 L -80.0 100.0 L -80.0 97.0 L -76.35 97.0 L -76.35 94.0 L -80.0 94.0 L -80.0 91.0 L -76.35 91.0 L -76.35 88.0 L -80.0 88.0 L -80.0 85.0 L -76.35 85.0 L -76.35 82.0 L -80.0 82.0 L -80.0 79.0 L -76.35 79.0 L -76.35 76.0 L -80.0 76.0 L -80.0 73.0 L -76.35 73.0 L -76.35 70.0 L -80.0 70.0 L -80.0 67.0 L -76.35 67.0 L -76.35 64.0 L -80.0 64.0 L -80.0 61.0 L -76.35 61.0 L -76.35 58.0 L -80.0 58.0 L -80.0 55.0 L -76.35 55.0 L -76.35 52.0 L -80.0 52.0 L -80.0 49.0 L -76.35 49.0 L -76.35 46.0 L -80.0 46.0 L -80.0 43.0 L -76.35 43.0 L -76.35 40.0 L -80.0 40.0 L -80.0 37.0 L -76.35 37.0 L -76.35 34.0 L -80.0 34.0 L -80.0 31.0 L -76.35 31.0 L -76.35 28.0 L -80.0 28.0 L -80.0 25.0 L -76.35 25.0 L -76.35 22.0 L -80.0 22.0 L -80.0 19.0 L -76.35 19.0 L -76.35 16.0 L -80.0 16.0 L -80.0 13.0 L -76.35 13.0 L -76.35 10.0 L -80.0 10.0 L -80.0 -15.0 " stroke="#000000" stroke-width="0.35 px" style="stroke-width:0.35;stroke-miterlimit:4;stroke-dasharray:none;fill:none;fill-rule: evenodd "/>
<title>Sketch</title>
</g>
</svg>