<?xml version="1.0"?>
<!DOCTYPE svg PUBLIC "-//W3C//DTD SVG 1.1//EN" "http://www.w3.org/Graphics/SVG/1.1/DTD/svg11.dtd">
<svg width="95.0946mm" height="261.865327429mm" viewBox="0 0 95.0946 261.865327429" xmlns="http://www.w3.org/2000/svg" version="1.1">
<g id="Fusion" transform="translate(0.932300,260.933027) scale(1,-1)">
<path id="Fusion_w0000"  d="M 0.0 0.0 L 89.58 0.0 L 89.58 17.5 L 93.23 17.5 L 93.23 20.5 L 89.58 20.5 L 89.58 23.5 L 93.23 23.5 L 93.23 26.5 L 89.58 26.5 L 89.58 29.5 L 93.23 29.5 L 93.23 32.5 L 89.58 32.5 L 89.58 35.5 L 93.23 35.5 L 93.23 38.5 L 89.58 38.5 L 89.58 41.5 L 93.23 41.5 L 93.23 44.5 L 89.58 44.5 L 89.58 47.5 L 93.23 47.5 L 93.23 50.5 L 89.58 50.5 L 89.58 53.5 L 93.23 53.5 L 93.23 56.5 L 89.58 56.5 L 89.58 59.5 L 93.23 59.5 L 93.23 62.5 L 89.58 62.5 L 89.58 65.5 L 93.23 65.5 L 93.23 68.5 L 89.58 68.5 L 89.58 71.5 L 93.23 71.5 L 93.23 74.5 L 89.58 74.5 L 89.58 77.5 L 93.23 77.5 L 93.23 80.5 L 89.58 80.5 L 89.58 83.5 L 93.23 83.5 L 93.23 86.5 L 89.58 86.5 L 89.58 89.5 L 93.23 89.5 L 93.23 92.5 L 89.58 92.5 L 89.58 95.5 L 93.23 95.5 L 93.23 98.5 L 89.58 98.5 L 89.58 101.5 L 93.23 101.5 L 93.23 104.5 L 89.58 104.5 L 89.58 107.5 L 93.23 107.5 L 93.23 110.5 L 89.58 110.5 L 89.58 113.5 L 93.23 113.5 L 93.23 116.5 L 89.58 116.5 L 89.58 119.5 L 93.23 119.5 L 93.23 122.5 L 89.58 122.5 L 89.58 125.5 L 93.23 125.5 L 93.23 128.5 L 89.58 128.5 L 89.58 131.5 L 93.23 131.5 L 93.23 134.5 L 89.58 134.5 L 89.58 137.5 L 93.23 137.5 L 93.23 140.5 L 89.58 140.5 L 89.58 143.5 L 93.23 143.5 L 93.23 146.5 L 89.58 146.5 L 89.58 149.5 L 93.23 149.5 L 93.23 152.5 L 89.58 152.5 L 89.58 155.5 L 93.23 155.5 L 93.23 158.5 L 89.58 158.5 L 89.58 161.5 L 93.23 161.5 L 93.23 164.5 L 89.58 164.5 L 89.58 167.5 L 93.23 167.5 L 93.23 170.5 L 89.58 170.5 L 89.58 173.5 L 93.23 173.5 L 93.23 176.5 L 89.58 176.5 L 89.58 179.5 L 93.23 179.5 L 93.23 182.5 L 89.58 182.5 L 89.58 185.5 L 93.23 185.5 L 93.23 188.5 L 89.58 188.5 L 89.58 191.5 L 93.23 191.5 L 93.23 194.5 L 89.58 194.5 L 89.58 197.5 L 93.23 197.5 L 93.23 200.5 L 89.58 200.5 L 89.58 203.5 L 93.23 203.5 L 93.23 206.5 L 89.58 206.5 L 89.58 209.5 L 93.23 209.5 L 93.23 212.5 L 89.58 212.5 L 89.58 215.5 L 93.23 215.5 L 93.23 218.5 L 89.58 218.5 L 89.58 221.5 L 93.23 221.5 L 93.23 224.5 L 89.58 224.5 L 89.58 227.5 L 93.23 227.5 L 93.23 230.5 L 89.58 230.5 L 89.58 233.5 L 93.23 233.5 L 93.23 236.5 L 89.58 236.5 L 89.58 239.5 L 93.23 239.5 L 93.23 242.5 L 89.58 242.5 L 89.58 259.99999297 L 89.58 260.0 " stroke="#191919" stroke-width="0.35 px" style="stroke-width:0.35;stroke-miterlimit:4;stroke-dasharray:none;fill:none;fill-rule: evenodd "/>
<path id="Fusion_w0001"  d="M 0.0 0.0 L 8.14365936812 23.6364297663 L 4.69274062225 24.825404034 L 5.66997974642 27.661775606 L 9.1208984923 26.4728013382 L 10.0981376165 29.3091729102 L 6.6472188706 30.4981471779 L 7.62445799477 33.3345187499 L 11.0753767406 32.1455444821 L 12.0526158648 34.9819160541 L 8.60169711895 36.1708903218 L 9.57893624312 39.0072618938 L 13.029854989 37.818287626 L 14.0070941132 40.654659198 L 10.5561753673 41.8436334657 L 11.5334144915 44.6800050377 L 14.9843332373 43.4910307699 L 15.9615723615 46.3274023419 L 12.5106536156 47.5163766096 L 13.4878927398 50.3527481816 L 16.9388114857 49.1637739138 L 17.9160506099 52.0001454858 L 14.465131864 53.1891197535 L 15.4423709882 56.0254913255 L 18.893289734 54.8365170578 L 19.8705288582 57.6728886297 L 16.4196101123 58.8618628975 L 17.3968492365 61.6982344694 L 20.8477679824 60.5092602017 L 21.8250071066 63.3456317736 L 18.3740883607 64.5346060414 L 19.3513274849 67.3709776133 L 22.8022462307 66.1820033456 L 23.7794853549 69.0183749175 L 20.328566609 70.2073491853 L 21.3058057332 73.0437207572 L 24.7567244791 71.8547464895 L 25.7339636033 74.6911180614 L 22.2830448574 75.8800923292 L 23.2602839816 78.7164639011 L 26.7112027274 77.5274896334 L 27.6884418516 80.3638612053 L 24.2375231057 81.5528354731 L 25.2147622299 84.389207045 L 28.6656809758 83.2002327773 L 29.6429201 86.0366043492 L 26.1920013541 87.225578617 L 27.1692404783 90.0619501889 L 30.6201592241 88.8729759212 L 31.5973983483 91.7093474931 L 28.1464796024 92.8983217609 L 29.1237187266 95.7346933328 L 32.5746374725 94.5457190651 L 33.5518765967 97.382090637 L 30.1009578508 98.5710649048 L 31.078196975 101.407436477 L 34.5291157208 100.218462209 L 35.506354845 103.054833781 L 32.0554360991 104.243808049 L 33.0326752233 107.080179621 L 36.4835939692 105.891205353 L 37.4608330934 108.727576925 L 34.0099143475 109.916551193 L 34.9871534717 112.752922765 L 38.4380722175 111.563948497 L 39.4153113417 114.400320069 L 35.9643925958 115.589294337 L 36.94163172 118.425665908 L 40.3925504659 117.236691641 L 41.3697895901 120.073063213 L 37.9188708442 121.26203748 L 38.8961099684 124.098409052 L 42.3470287142 122.909434785 L 43.3242678384 125.745806357 L 39.8733490925 126.934780624 L 40.8505882167 129.771152196 L 44.3015069626 128.582177929 L 45.2787460868 131.4185495 L 41.8278273409 132.607523768 L 42.8050664651 135.44389534 L 46.2559852109 134.254921072 L 47.2332243351 137.091292644 L 43.7823055892 138.280266912 L 44.7595447134 141.116638484 L 48.2104634593 139.927664216 L 49.1877025835 142.764035788 L 45.7367838376 143.953010056 L 46.7140229618 146.789381628 L 50.1649417076 145.60040736 L 51.1421808318 148.436778932 L 47.6912620859 149.6257532 L 48.6685012101 152.462124772 L 52.119419956 151.273150504 L 53.0966590802 154.109522076 L 49.6457403343 155.298496344 L 50.6229794585 158.134867916 L 54.0738982043 156.945893648 L 55.0511373285 159.78226522 L 51.6002185826 160.971239488 L 52.5774577068 163.80761106 L 56.0283764527 162.618636792 L 57.0056155769 165.455008364 L 53.554696831 166.643982632 L 54.5319359552 169.480354204 L 57.982854701 168.291379936 L 58.9600938252 171.127751508 L 55.5091750793 172.316725776 L 56.4864142035 175.153097348 L 59.9373329494 173.96412308 L 60.9145720736 176.800494652 L 57.4636533277 177.989468919 L 58.4408924519 180.825840491 L 61.8918111977 179.636866224 L 62.8690503219 182.473237796 L 59.418131576 183.662212063 L 60.3953707002 186.498583635 L 63.8462894461 185.309609368 L 64.8235285703 188.14598094 L 61.3726098244 189.334955207 L 62.3498489486 192.171326779 L 65.8007676944 190.982352511 L 66.7780068186 193.818724083 L 63.3270880727 195.007698351 L 64.3043271969 197.844069923 L 67.7552459428 196.655095655 L 68.732485067 199.491467227 L 65.2815663211 200.680441495 L 66.2588054453 203.516813067 L 69.7097241911 202.327838799 L 70.6869633153 205.164210371 L 67.2360445694 206.353184639 L 68.2132836936 209.189556211 L 71.6642024395 208.000581943 L 72.6414415637 210.836953515 L 69.1905228178 212.025927783 L 70.167761942 214.862299355 L 73.6186806878 213.673325087 L 74.595919812 216.509696659 L 71.1450010661 217.698670927 L 72.1222401903 220.535042499 L 75.5731589362 219.346068231 L 76.5503980604 222.182439803 L 73.0994793145 223.371414071 L 74.0767184387 226.207785643 L 77.5276371845 225.018811375 L 78.5048763087 227.855182947 L 75.0539575628 229.044157215 L 76.031196687 231.880528787 L 79.4821154329 230.691554519 L 80.4593545571 233.527926091 L 77.0084358112 234.716900359 L 77.9856749354 237.55327193 L 81.4365936812 236.364297663 L 89.58 259.99999297 L 89.5802530494 260.000727429 " stroke="#191919" stroke-width="0.35 px" style="stroke-width:0.35;stroke-miterlimit:4;stroke-dasharray:none;fill:none;fill-rule: evenodd "/>
<title>Fusion</title>
</g>
</svg>